<svg xmlns="http://www.w3.org/2000/svg" viewBox="-36.3 -743.6 2635.9 794.0" role="img" aria-label="nema — ai-native docs">
  <title>nema — ai-native docs</title>
  <path d="M3.74002685546875 -638.3999633789062 20.169638671875 -702.6399633789063H32.639164550781246L49.05997314453125 -638.3999633789062H39.41523974609375L35.53442578125 -654.70639453125H17.32717529296875L13.446361328124999 -638.3999633789062ZM19.0959677734375 -662.555947265625H33.677633300781245L29.304010742187497 -681.0623999023437Q28.13360107421875 -686.0080278320313 27.381199462890624 -689.6468337402343Q26.6287978515625 -693.2856396484375 26.4 -694.6408310546875Q26.171202148437498 -693.2856396484375 25.44519946289062 -689.6600332031251Q24.719196777343747 -686.0344267578125 23.522388183593748 -681.1503999023438ZM82.50002685546875 -638.3999633789062V-646.8831118164062H95.50643115234375V-694.1568149414062H82.50002685546875V-702.6399633789063H118.13997314453124V-694.1568149414062H105.13356884765625V-646.8831118164062H118.13997314453124V-638.3999633789062ZM160.16 -663.1279956054688V-671.7519311523438H188.32V-663.1279956054688ZM228.8880322265625 -638.3999633789062V-702.6399633789063H240.89997314453123L259.62640966796874 -649.2238989257812Q259.4240107421875 -651.7406860351563 259.1644123535156 -655.2694731445313Q258.90481396484375 -658.7982602539063 258.7464150390625 -662.5734516601563Q258.58801611328124 -666.3486430664062 258.58801611328124 -669.4638452148438V-702.6399633789063H267.43196777343746V-638.3999633789062H255.42002685546873L236.8079892578125 -691.8160278320313Q237.01038818359373 -689.4928364257812 237.21278710937497 -686.0828444824219Q237.41518603515624 -682.6728525390625 237.5735849609375 -678.990057373047Q237.73198388671875 -675.3072622070313 237.73198388671875 -672.1040600585937V-638.3999633789062ZM299.42002685546873 -638.3999633789062 315.849638671875 -702.6399633789063H328.31916455078124L344.73997314453123 -638.3999633789062H335.09523974609374L331.21442578125 -654.70639453125H313.0071752929688L309.12636132812503 -638.3999633789062ZM314.7759677734375 -662.555947265625H329.35763330078123L324.9840107421875 -681.0623999023437Q323.81360107421875 -686.0080278320313 323.0611994628906 -689.6468337402343Q322.30879785156253 -693.2856396484375 322.08 -694.6408310546875Q321.8512021484375 -693.2856396484375 321.12519946289063 -689.6600332031251Q320.3991967773438 -686.0344267578125 319.20238818359377 -681.1503999023438ZM391.2480322265625 -638.3999633789062V-693.9544267578125H374.0440161132812V-702.701564453125H417.95598388671874V-693.9544267578125H400.75196777343746V-638.3999633789062ZM452.10002685546874 -638.3999633789062V-646.8831118164062H465.1064311523437V-694.1568149414062H452.10002685546874V-702.6399633789063H487.73997314453123V-694.1568149414062H474.7335688476562V-646.8831118164062H487.73997314453123V-638.3999633789062ZM537.539234375 -638.3999633789062 521.1800268554687 -702.6399633789063H531.0007602539062L541.3055849609375 -659.91592578125Q542.2383935546875 -656.079095703125 542.9907951660156 -652.3610876464843Q543.7431967773437 -648.6430795898438 544.0951967773437 -646.5398828125Q544.4471967773437 -648.6430795898438 545.1291994628906 -652.3610876464843Q545.8112021484375 -656.079095703125 546.7440107421875 -659.9423247070313L556.9080375976562 -702.6399633789063H566.4999731445312L550.1319624023437 -638.3999633789062ZM599.6320214843751 -638.3999633789062V-702.6399633789063H637.3839892578125V-694.2096127929688H608.9951591796876V-675.9583461914062H634.3039892578125V-667.5895966796875H608.9951591796876V-646.8303139648438H637.3839892578125V-638.3999633789062ZM746.5304311523437 -638.3999633789062V-702.6399633789063H764.4295795898437Q770.80957421875 -702.6399633789063 775.4735688476562 -700.2111655273437Q780.1375634765624 -697.7823676757812 782.7247602539062 -693.3779714355469Q785.3119570312499 -688.9735751953125 785.3119570312499 -682.9719794921875V-658.155947265625Q785.3119570312499 -652.1807504882812 782.7247602539062 -647.7323542480469Q780.1375634765624 -643.2839580078125 775.4735688476562 -640.8419606933594Q770.80957421875 -638.3999633789062 764.4295795898437 -638.3999633789062ZM756.0343666992187 -647.0238989257813H764.4295795898437Q769.7096010742187 -647.0238989257813 772.7588112792968 -649.9895107421876Q775.8080214843749 -652.9551225585938 775.8080214843749 -658.155947265625V-682.9719794921875Q775.8080214843749 -688.0848041992188 772.7588112792968 -691.0504160156249Q769.7096010742187 -694.0160278320312 764.4295795898437 -694.0160278320312H756.0343666992187ZM839.52 -637.5199633789063Q833.5272075195312 -637.5199633789063 829.1756145019531 -639.7859606933594Q824.824021484375 -642.0519580078125 822.4744257812499 -646.284755859375Q820.124830078125 -650.5175537109375 820.124830078125 -656.2639526367187V-684.7759741210938Q820.124830078125 -690.5839741210938 822.4744257812499 -694.7859714355468Q824.824021484375 -698.9879687499999 829.1756145019531 -701.2539660644532Q833.5272075195312 -703.5199633789063 839.52 -703.5199633789063Q845.53919140625 -703.5199633789063 849.8775849609375 -701.2539660644532Q854.215978515625 -698.9879687499999 856.56557421875 -694.7859714355468Q858.915169921875 -690.5839741210938 858.915169921875 -684.8375751953125V-656.2639526367187Q858.915169921875 -650.5175537109375 856.56557421875 -646.284755859375Q854.215978515625 -642.0519580078125 849.8775849609375 -639.7859606933594Q845.53919140625 -637.5199633789063 839.52 -637.5199633789063ZM839.52 -645.9415107421875Q844.3424150390625 -645.9415107421875 846.8768247070313 -648.625521484375Q849.411234375 -651.3095322265625 849.411234375 -656.2639526367187V-684.7759741210938Q849.411234375 -689.7567934570312 846.8900241699218 -692.4276047363281Q844.3688139648438 -695.098416015625 839.52 -695.098416015625Q834.732787109375 -695.098416015625 832.1807763671875 -692.4276047363281Q829.628765625 -689.7567934570312 829.628765625 -684.7759741210938V-656.2639526367187Q829.628765625 -651.3095322265625 832.1939758300782 -648.625521484375Q834.7591860351563 -645.9415107421875 839.52 -645.9415107421875ZM913.8051994628906 -637.5199633789063Q907.7992075195313 -637.5199633789063 903.359614501953 -639.7859606933594Q898.920021484375 -642.0519580078125 896.48242578125 -646.284755859375Q894.044830078125 -650.5175537109375 894.044830078125 -656.2639526367187V-684.7759741210938Q894.044830078125 -690.610373046875 896.48242578125 -694.7991708984375Q898.920021484375 -698.9879687499999 903.359614501953 -701.2539660644532Q907.7992075195313 -703.5199633789063 913.8051994628906 -703.5199633789063Q919.8111914062499 -703.5199633789063 924.2067844238281 -701.2231655273438Q928.6023774414062 -698.9263676757812 931.0091726074219 -694.74354693949Q933.4159677734375 -690.5607262031987 933.4159677734375 -684.7759741210938H923.9120322265625Q923.9120322265625 -689.7567934570312 921.2583189143613 -692.4276047363281Q918.6046056021602 -695.098416015625 913.7870952815488 -695.098416015625Q908.9695849609375 -695.098416015625 906.2591752929687 -692.4530429916382Q903.548765625 -689.8076699676513 903.548765625 -684.8375751953125V-656.2639526367187Q903.548765625 -651.3027790129905 906.2591752929687 -648.622144877589Q908.9695849609375 -645.9415107421875 913.7870952815488 -645.9415107421875Q918.6046056021602 -645.9415107421875 921.2583189143613 -648.622144877589Q923.9120322265625 -651.3027790129905 923.9120322265625 -656.2639526367187H933.4159677734375Q933.4159677734375 -650.5791547851562 931.0091726074219 -646.3463569335937Q928.6023774414062 -642.1135590820312 924.2067844238281 -639.8167612304687Q919.8111914062499 -637.5199633789063 913.8051994628906 -637.5199633789063ZM987.6064042968749 -637.5199633789063Q981.1384096679686 -637.5199633789063 976.4612155761718 -639.6847612304688Q971.7840214843749 -641.8495590820313 969.2408247070312 -645.8623569335938Q966.6976279296874 -649.8751547851563 966.6360268554687 -655.3839526367187H976.1399624023437Q976.1399624023437 -651.0191333007813 979.2023720703124 -648.4803220214844Q982.2647817382812 -645.9415107421875 987.6856010742187 -645.9415107421875Q992.8072182617186 -645.9415107421875 995.6936279296874 -648.405521484375Q998.5800375976562 -650.8695322265625 998.5800375976562 -655.2343515625Q998.5800375976562 -658.789564453125 996.6044338378906 -661.4295751953125Q994.6288300781249 -664.0695859375 990.968021484375 -665.0815913085937L982.9159946289062 -667.4400063476562Q975.8408139648436 -669.437607421875 971.9864257812499 -674.3348015136719Q968.1320375976562 -679.2319956054688 968.1320375976562 -685.999181640625Q968.1320375976562 -691.3231762695312 970.5432343749999 -695.2567719726562Q972.9544311523437 -699.1903676757812 977.3368247070312 -701.3859660644531Q981.7192182617187 -703.581564453125 987.6768085937499 -703.581564453125Q996.5471914062499 -703.581564453125 1001.8491833496093 -698.8207666015626Q1007.1511752929687 -694.05996875 1007.2127763671874 -686.0959741210937H997.7088408203124Q997.7088408203124 -690.34639453125 995.0600322265624 -692.7532058105469Q992.4112236328124 -695.1600170898438 987.5624096679687 -695.1600170898438Q982.8543935546875 -695.1600170898438 980.2451833496093 -692.9204079589845Q977.6359731445311 -690.680798828125 977.6359731445311 -686.6503837890625Q977.6359731445311 -683.0335698242187 979.6027790527343 -680.4067585449218Q981.5695849609374 -677.779947265625 985.2391967773436 -676.7063408203124L993.4584204101561 -674.25992578125Q1000.5159946289061 -672.2623247070312 1004.2999838867187 -667.3563273925781Q1008.0839731445312 -662.450330078125 1008.0839731445312 -655.5423461914063Q1008.0839731445312 -650.1567504882812 1005.5275769042969 -646.0911547851563Q1002.9711806640624 -642.0255590820312 998.3687871093749 -639.7727612304687Q993.7663935546874 -637.5199633789063 987.6064042968749 -637.5199633789063Z" fill="#edecec" fill-opacity="0.55"/>
  <path d="M57.6002197265625 0.0V-493.0H195.3994140625V-379.20013427734375L175.3994140625 -377.800048828125Q187.7994384765625 -425.39990234375 213.3994140625 -452.69989013671875Q238.9993896484375 -479.9998779296875 271.7994079589844 -491.6999206542969Q304.59942626953125 -503.39996337890625 337.59954833984375 -503.39996337890625Q422.5994873046875 -503.39996337890625 470.199462890625 -455.89996337890625Q517.7994384765625 -408.39996337890625 517.7994384765625 -324.99981689453125V0.0H380.000244140625V-274.0001220703125Q380.000244140625 -331.400390625 359.70013427734375 -357.7005310058594Q339.4000244140625 -384.00067138671875 295.39984130859375 -384.00067138671875Q261.5997314453125 -384.00067138671875 239.4996337890625 -368.20062255859375Q217.3995361328125 -352.40057373046875 206.39947509765625 -319.1004638671875Q195.3994140625 -285.80035400390625 195.3994140625 -233.2001953125V0.0ZM816.5999755859375 10.39996337890625Q750.60009765625 10.39996337890625 703.5001525878906 -10.70001220703125Q656.4002075195312 -31.79998779296875 626.7002258300781 -67.99996948242188Q597.000244140625 -104.199951171875 583.3002319335938 -149.699951171875Q569.6002197265625 -195.199951171875 569.6002197265625 -243.79998779296875Q569.6002197265625 -290.800048828125 583.2002258300781 -336.9000549316406Q596.8002319335938 -383.00006103515625 625.1002197265625 -420.60003662109375Q653.4002075195312 -458.20001220703125 699.0001525878906 -480.79998779296875Q744.60009765625 -503.39996337890625 808.5999755859375 -503.39996337890625Q866.3999633789062 -503.39996337890625 909.8999328613281 -483.89996337890625Q953.39990234375 -464.39996337890625 982.2998657226562 -429.5999755859375Q1011.1998291015625 -394.79998779296875 1025.7998046875 -348.00006103515625Q1040.3997802734375 -301.20013427734375 1040.3997802734375 -246.60028076171875Q1040.3997802734375 -237.80035400390625 1039.8997802734375 -226.10031127929688Q1039.3997802734375 -214.4002685546875 1037.3997802734375 -199.40032958984375H707.1994018554688Q712.599365234375 -152.99993896484375 745.5994567871094 -130.59967041015625Q778.5995483398438 -108.19940185546875 824.7998657226562 -108.19940185546875Q862.199951171875 -108.19940185546875 898.9998779296875 -120.99942016601562Q935.7998046875 -133.7994384765625 963.7998046875 -157.59954833984375L1026.7997436523438 -62.40020751953125Q990.1998901367188 -35.8001708984375 958.5999145507812 -19.70013427734375Q926.9999389648438 -3.60009765625 893.4999389648438 3.399932861328125Q859.9999389648438 10.39996337890625 816.5999755859375 10.39996337890625ZM905.2005615234375 -267.99993896484375Q907.2005615234375 -275.99993896484375 908.5005493164062 -283.99993896484375Q909.800537109375 -291.99993896484375 909.800537109375 -299.199951171875Q909.800537109375 -319.20001220703125 902.5005187988281 -335.6001281738281Q895.2005004882812 -352.000244140625 881.9004516601562 -363.9003601074219Q868.6004028320312 -375.80047607421875 850.7002868652344 -382.50054931640625Q832.8001708984375 -389.20062255859375 811.3999633789062 -389.20062255859375Q776.3998413085938 -389.20062255859375 753.7997131347656 -375.60052490234375Q731.1995849609375 -362.00042724609375 719.7994995117188 -341.80023193359375Q708.3994140625 -321.60003662109375 705.3994140625 -300.79974365234375H950.80029296875ZM1099.6002197265625 0.0V-493.0H1237.3994140625V-364.4000244140625L1206.7996215820312 -336.40045166015625Q1214.1996459960938 -387.40020751953125 1231.6996154785156 -420.10009765625Q1249.1995849609375 -452.79998779296875 1272.9995422363281 -470.89996337890625Q1296.7994995117188 -488.99993896484375 1322.8994750976562 -496.199951171875Q1348.9994506835938 -503.39996337890625 1373.5994873046875 -503.39996337890625Q1409.7996215820312 -503.39996337890625 1445.3995971679688 -489.59991455078125Q1480.9995727539062 -475.79986572265625 1508.1994934082031 -440.8998718261719Q1535.3994140625 -405.9998779296875 1545.7993774414062 -341.800048828125L1463.39990234375 -307.60052490234375Q1478.39990234375 -384.20013427734375 1508.9997863769531 -426.5000305175781Q1539.5996704101562 -468.7999267578125 1578.099609375 -486.0999450683594Q1616.5995483398438 -503.39996337890625 1655.7996826171875 -503.39996337890625Q1719.9996337890625 -503.39996337890625 1759.7995910644531 -475.4999694824219Q1799.5995483398438 -447.5999755859375 1818.5995178222656 -404.49993896484375Q1837.5994873046875 -361.39990234375 1837.5994873046875 -314.3997802734375V0.0H1700.0003051757812V-280.79998779296875Q1700.0003051757812 -315.60015869140625 1691.1002807617188 -338.6003112792969Q1682.2002563476562 -361.6004638671875 1665.3001708984375 -372.8005676269531Q1648.4000854492188 -384.00067138671875 1623.1998901367188 -384.00067138671875Q1594.3997802734375 -384.00067138671875 1575.2996826171875 -368.8006286621094Q1556.1995849609375 -353.6005859375 1546.6995239257812 -322.70050048828125Q1537.199462890625 -291.8004150390625 1537.199462890625 -244.2003173828125V0.0H1400.2002563476562V-282.2000732421875Q1400.2002563476562 -333.20037841796875 1381.0001525878906 -358.60052490234375Q1361.800048828125 -384.00067138671875 1326.9998168945312 -384.00067138671875Q1297.3997192382812 -384.00067138671875 1277.3996276855469 -368.70062255859375Q1257.3995361328125 -353.40057373046875 1247.3994750976562 -322.6004943847656Q1237.3994140625 -291.8004150390625 1237.3994140625 -244.2003173828125V0.0ZM2225.400390625 0.0 2214.6004638671875 -66.20050048828125V-312.199951171875Q2214.6004638671875 -351.6002197265625 2188.3003845214844 -369.8004150390625Q2162.0003051757812 -388.0006103515625 2120.0 -388.0006103515625Q2080.7999877929688 -388.0006103515625 2038.60009765625 -373.1005859375Q1996.4002075195312 -358.2005615234375 1965.8001708984375 -333.600341796875L1902.4002075195312 -428.7996826171875Q1957.7999877929688 -469.59979248046875 2012.7999572753906 -486.4998779296875Q2067.7999267578125 -503.39996337890625 2131.5999145507812 -503.39996337890625Q2234.9998168945312 -503.39996337890625 2293.199737548828 -452.1999816894531Q2351.399658203125 -401.0 2351.399658203125 -312.199951171875V0.0ZM2081.60009765625 10.39996337890625Q2028.0000610351562 10.39996337890625 1984.9000854492188 -9.9000244140625Q1941.8001098632812 -30.20001220703125 1916.900146484375 -67.5999755859375Q1892.0001831054688 -104.99993896484375 1892.0001831054688 -154.19989013671875Q1892.0001831054688 -196.79986572265625 1910.1001586914062 -228.09982299804688Q1928.2001342773438 -259.3997802734375 1958.2000732421875 -276.19976806640625Q1981.8001098632812 -289.99981689453125 2011.7001647949219 -296.0998229980469Q2041.6002197265625 -302.1998291015625 2075.4002685546875 -302.1998291015625H2225.8004150390625V-200.60040283203125H2095.400146484375Q2081.4000244140625 -200.60040283203125 2068.9998474121094 -198.20037841796875Q2056.5996704101562 -195.80035400390625 2047.3995361328125 -189.20025634765625Q2039.199462890625 -183.2001953125 2034.4994201660156 -174.20010375976562Q2029.7993774414062 -165.20001220703125 2029.7993774414062 -153.9998779296875Q2029.7993774414062 -129.399658203125 2049.5995178222656 -114.79953002929688Q2069.399658203125 -100.19940185546875 2102.39990234375 -100.19940185546875Q2133.0000610351562 -100.19940185546875 2158.5001831054688 -113.19949340820312Q2184.0003051757812 -126.1995849609375 2199.3003845214844 -148.89974975585938Q2214.6004638671875 -171.59991455078125 2214.6004638671875 -200.80010986328125L2247.2005004882812 -125.6007080078125Q2230.8006591796875 -74.20068359375 2204.400665283203 -44.4005126953125Q2178.0006713867188 -14.600341796875 2146.300537109375 -2.100189208984375Q2114.6004028320312 10.39996337890625 2081.60009765625 10.39996337890625Z" fill="#edecec"/>
  <path d="M2416.4003295898438 0.0V-136.7996826171875H2559.5996704101562V0.0Z" fill="#fb923c"/>
</svg>
