<svg xmlns="http://www.w3.org/2000/svg" viewBox="17.6 -543.4 2582.0 593.8" role="img" aria-label="nema">
  <title>nema</title>
  <path d="M57.6002197265625 0.0V-493.0H195.3994140625V-379.20013427734375L175.3994140625 -377.800048828125Q187.7994384765625 -425.39990234375 213.3994140625 -452.69989013671875Q238.9993896484375 -479.9998779296875 271.7994079589844 -491.6999206542969Q304.59942626953125 -503.39996337890625 337.59954833984375 -503.39996337890625Q422.5994873046875 -503.39996337890625 470.199462890625 -455.89996337890625Q517.7994384765625 -408.39996337890625 517.7994384765625 -324.99981689453125V0.0H380.000244140625V-274.0001220703125Q380.000244140625 -331.400390625 359.70013427734375 -357.7005310058594Q339.4000244140625 -384.00067138671875 295.39984130859375 -384.00067138671875Q261.5997314453125 -384.00067138671875 239.4996337890625 -368.20062255859375Q217.3995361328125 -352.40057373046875 206.39947509765625 -319.1004638671875Q195.3994140625 -285.80035400390625 195.3994140625 -233.2001953125V0.0ZM816.5999755859375 10.39996337890625Q750.60009765625 10.39996337890625 703.5001525878906 -10.70001220703125Q656.4002075195312 -31.79998779296875 626.7002258300781 -67.99996948242188Q597.000244140625 -104.199951171875 583.3002319335938 -149.699951171875Q569.6002197265625 -195.199951171875 569.6002197265625 -243.79998779296875Q569.6002197265625 -290.800048828125 583.2002258300781 -336.9000549316406Q596.8002319335938 -383.00006103515625 625.1002197265625 -420.60003662109375Q653.4002075195312 -458.20001220703125 699.0001525878906 -480.79998779296875Q744.60009765625 -503.39996337890625 808.5999755859375 -503.39996337890625Q866.3999633789062 -503.39996337890625 909.8999328613281 -483.89996337890625Q953.39990234375 -464.39996337890625 982.2998657226562 -429.5999755859375Q1011.1998291015625 -394.79998779296875 1025.7998046875 -348.00006103515625Q1040.3997802734375 -301.20013427734375 1040.3997802734375 -246.60028076171875Q1040.3997802734375 -237.80035400390625 1039.8997802734375 -226.10031127929688Q1039.3997802734375 -214.4002685546875 1037.3997802734375 -199.40032958984375H707.1994018554688Q712.599365234375 -152.99993896484375 745.5994567871094 -130.59967041015625Q778.5995483398438 -108.19940185546875 824.7998657226562 -108.19940185546875Q862.199951171875 -108.19940185546875 898.9998779296875 -120.99942016601562Q935.7998046875 -133.7994384765625 963.7998046875 -157.59954833984375L1026.7997436523438 -62.40020751953125Q990.1998901367188 -35.8001708984375 958.5999145507812 -19.70013427734375Q926.9999389648438 -3.60009765625 893.4999389648438 3.399932861328125Q859.9999389648438 10.39996337890625 816.5999755859375 10.39996337890625ZM905.2005615234375 -267.99993896484375Q907.2005615234375 -275.99993896484375 908.5005493164062 -283.99993896484375Q909.800537109375 -291.99993896484375 909.800537109375 -299.199951171875Q909.800537109375 -319.20001220703125 902.5005187988281 -335.6001281738281Q895.2005004882812 -352.000244140625 881.9004516601562 -363.9003601074219Q868.6004028320312 -375.80047607421875 850.7002868652344 -382.50054931640625Q832.8001708984375 -389.20062255859375 811.3999633789062 -389.20062255859375Q776.3998413085938 -389.20062255859375 753.7997131347656 -375.60052490234375Q731.1995849609375 -362.00042724609375 719.7994995117188 -341.80023193359375Q708.3994140625 -321.60003662109375 705.3994140625 -300.79974365234375H950.80029296875ZM1099.6002197265625 0.0V-493.0H1237.3994140625V-364.4000244140625L1206.7996215820312 -336.40045166015625Q1214.1996459960938 -387.40020751953125 1231.6996154785156 -420.10009765625Q1249.1995849609375 -452.79998779296875 1272.9995422363281 -470.89996337890625Q1296.7994995117188 -488.99993896484375 1322.8994750976562 -496.199951171875Q1348.9994506835938 -503.39996337890625 1373.5994873046875 -503.39996337890625Q1409.7996215820312 -503.39996337890625 1445.3995971679688 -489.59991455078125Q1480.9995727539062 -475.79986572265625 1508.1994934082031 -440.8998718261719Q1535.3994140625 -405.9998779296875 1545.7993774414062 -341.800048828125L1463.39990234375 -307.60052490234375Q1478.39990234375 -384.20013427734375 1508.9997863769531 -426.5000305175781Q1539.5996704101562 -468.7999267578125 1578.099609375 -486.0999450683594Q1616.5995483398438 -503.39996337890625 1655.7996826171875 -503.39996337890625Q1719.9996337890625 -503.39996337890625 1759.7995910644531 -475.4999694824219Q1799.5995483398438 -447.5999755859375 1818.5995178222656 -404.49993896484375Q1837.5994873046875 -361.39990234375 1837.5994873046875 -314.3997802734375V0.0H1700.0003051757812V-280.79998779296875Q1700.0003051757812 -315.60015869140625 1691.1002807617188 -338.6003112792969Q1682.2002563476562 -361.6004638671875 1665.3001708984375 -372.8005676269531Q1648.4000854492188 -384.00067138671875 1623.1998901367188 -384.00067138671875Q1594.3997802734375 -384.00067138671875 1575.2996826171875 -368.8006286621094Q1556.1995849609375 -353.6005859375 1546.6995239257812 -322.70050048828125Q1537.199462890625 -291.8004150390625 1537.199462890625 -244.2003173828125V0.0H1400.2002563476562V-282.2000732421875Q1400.2002563476562 -333.20037841796875 1381.0001525878906 -358.60052490234375Q1361.800048828125 -384.00067138671875 1326.9998168945312 -384.00067138671875Q1297.3997192382812 -384.00067138671875 1277.3996276855469 -368.70062255859375Q1257.3995361328125 -353.40057373046875 1247.3994750976562 -322.6004943847656Q1237.3994140625 -291.8004150390625 1237.3994140625 -244.2003173828125V0.0ZM2225.400390625 0.0 2214.6004638671875 -66.20050048828125V-312.199951171875Q2214.6004638671875 -351.6002197265625 2188.3003845214844 -369.8004150390625Q2162.0003051757812 -388.0006103515625 2120.0 -388.0006103515625Q2080.7999877929688 -388.0006103515625 2038.60009765625 -373.1005859375Q1996.4002075195312 -358.2005615234375 1965.8001708984375 -333.600341796875L1902.4002075195312 -428.7996826171875Q1957.7999877929688 -469.59979248046875 2012.7999572753906 -486.4998779296875Q2067.7999267578125 -503.39996337890625 2131.5999145507812 -503.39996337890625Q2234.9998168945312 -503.39996337890625 2293.199737548828 -452.1999816894531Q2351.399658203125 -401.0 2351.399658203125 -312.199951171875V0.0ZM2081.60009765625 10.39996337890625Q2028.0000610351562 10.39996337890625 1984.9000854492188 -9.9000244140625Q1941.8001098632812 -30.20001220703125 1916.900146484375 -67.5999755859375Q1892.0001831054688 -104.99993896484375 1892.0001831054688 -154.19989013671875Q1892.0001831054688 -196.79986572265625 1910.1001586914062 -228.09982299804688Q1928.2001342773438 -259.3997802734375 1958.2000732421875 -276.19976806640625Q1981.8001098632812 -289.99981689453125 2011.7001647949219 -296.0998229980469Q2041.6002197265625 -302.1998291015625 2075.4002685546875 -302.1998291015625H2225.8004150390625V-200.60040283203125H2095.400146484375Q2081.4000244140625 -200.60040283203125 2068.9998474121094 -198.20037841796875Q2056.5996704101562 -195.80035400390625 2047.3995361328125 -189.20025634765625Q2039.199462890625 -183.2001953125 2034.4994201660156 -174.20010375976562Q2029.7993774414062 -165.20001220703125 2029.7993774414062 -153.9998779296875Q2029.7993774414062 -129.399658203125 2049.5995178222656 -114.79953002929688Q2069.399658203125 -100.19940185546875 2102.39990234375 -100.19940185546875Q2133.0000610351562 -100.19940185546875 2158.5001831054688 -113.19949340820312Q2184.0003051757812 -126.1995849609375 2199.3003845214844 -148.89974975585938Q2214.6004638671875 -171.59991455078125 2214.6004638671875 -200.80010986328125L2247.2005004882812 -125.6007080078125Q2230.8006591796875 -74.20068359375 2204.400665283203 -44.4005126953125Q2178.0006713867188 -14.600341796875 2146.300537109375 -2.100189208984375Q2114.6004028320312 10.39996337890625 2081.60009765625 10.39996337890625Z" fill="#edecec"/>
  <path d="M2416.4003295898438 0.0V-136.7996826171875H2559.5996704101562V0.0Z" fill="#fb923c"/>
</svg>
